<svg width="64" height="64" viewBox="0 0 64 64" fill="none" xmlns="http://www.w3.org/2000/svg">
<rect width="64" height="64" fill="white"/>
<path d="M11.4124 9V17.9202L17.3355 22.8876V40.4667H14.0235L11 54H52L48.9767 40.4667H45.6608V22.8876L51.5839 17.9202V9H44.6717V13.2231H40.4626V9H33.5504V13.2231H29.3936V9H22.4814V13.2231H18.3246V9H11.4124ZM20.8635 23.6829H23.2584V28.5062H20.8635V23.6829ZM30.2946 23.6829H32.6895V28.5062H30.2946V23.6829ZM39.7978 23.6829H42.1926V28.5062H39.7978V23.6829Z" fill="black"/>
<path d="M31.4498 34.8257C29.0512 34.8257 27.1147 36.7621 27.1147 39.1609C27.1147 41.5598 29.0512 43.4962 31.4498 43.4962C33.8485 43.4962 35.785 41.5598 35.785 39.161C35.785 36.7624 33.8485 34.8258 31.4498 34.8258V34.8257ZM25.6784 37.4339C19.3225 37.3849 20.128 42.3252 30.3123 45.6733C39.58 48.7199 43.3979 46.109 40.1347 42.8033C40.1178 42.7807 40.1003 42.7583 40.0824 42.736C39.8817 42.9031 39.6773 43.0656 39.4692 43.2233C39.6532 43.4494 39.7619 43.6779 39.7852 43.8799C39.8144 44.1342 39.7482 44.3639 39.4986 44.6173C39.2591 44.8604 38.8321 45.1086 38.1735 45.2936C37.1861 45.5273 35.7771 45.5233 33.9782 45.1847L33.9825 45.183C33.8942 45.1675 33.8061 45.1508 33.7181 45.1339C32.8209 44.9527 31.8312 44.6907 30.752 44.3359C27.8824 43.3926 25.9099 42.2972 24.7611 41.2624C24.7712 41.2546 24.7808 41.2468 24.791 41.2391C24.7799 41.2459 24.7691 41.2528 24.7581 41.2596C22.5714 39.2876 23.3766 37.5362 26.6677 37.478C26.3208 37.4507 25.9909 37.4363 25.6783 37.4339L25.6784 37.4339ZM37.2212 37.4339C36.9086 37.4364 36.5788 37.4507 36.2318 37.478C39.5229 37.5363 40.3276 39.2875 38.1405 41.2594C38.1297 41.2526 38.1195 41.2459 38.1085 41.2391C38.1185 41.2467 38.1279 41.2542 38.1377 41.2618C37.0706 42.223 35.293 43.2365 32.746 44.1318C33.6151 44.3538 34.5023 44.5158 35.4044 44.6092C36.833 43.9889 37.9895 43.3412 38.8871 42.6998C38.8875 42.7001 38.8879 42.7003 38.8884 42.7006C38.9098 42.6848 38.9306 42.6689 38.9518 42.653C42.6638 39.9638 41.8101 37.3985 37.2211 37.4339H37.2212ZM22.8268 42.7415C19.7767 45.7582 22.6026 48.224 30.0736 46.3971C29.1366 46.0869 28.2324 45.7478 27.3731 45.4047C26.3315 45.4997 25.4696 45.4576 24.7956 45.3085C24.1065 45.1221 23.6631 44.867 23.4171 44.6173C23.1675 44.364 23.1014 44.1343 23.1306 43.88C23.1536 43.6798 23.2606 43.4536 23.4416 43.2295C23.233 43.0716 23.028 42.909 22.8269 42.7416L22.8268 42.7415Z" fill="#FFC400"/>
</svg>
