<svg width="64" height="64" viewBox="0 0 64 64" fill="none" xmlns="http://www.w3.org/2000/svg">
<rect width="64" height="64" fill="white"/>
<path fill-rule="evenodd" clip-rule="evenodd" d="M31.213 12.2333C32.0428 11.9222 32.9572 11.9222 33.787 12.2333L46.6203 17.0458C47.3194 17.3078 47.9218 17.777 48.3471 18.3906C48.7723 19.0043 49.0001 19.7331 49 20.4796V30.3118C49.0001 33.3761 48.1468 36.3798 46.5359 38.9865C44.9249 41.5931 42.6199 43.6997 39.8792 45.0701L33.7302 48.1446C33.3482 48.3357 32.927 48.4351 32.5 48.4351C32.073 48.4351 31.6518 48.3357 31.2698 48.1446L25.1208 45.0701C22.3801 43.6997 20.0751 41.5931 18.4641 38.9865C16.8532 36.3798 15.9999 33.3761 16 30.3118V20.4796C15.9999 19.7331 16.2277 19.0043 16.6529 18.3906C17.0782 17.777 17.6806 17.3078 18.3797 17.0458L31.213 12.2333ZM32.5 15.6671L19.6667 20.4796V30.3118C19.6671 32.6949 20.3311 35.0308 21.5842 37.0578C22.8373 39.0848 24.6301 40.7229 26.7617 41.7885L32.5 44.6613L38.2383 41.7921C40.3705 40.7263 42.1636 39.0876 43.4168 37.0599C44.67 35.0322 45.3336 32.6955 45.3333 30.3118V20.4796L32.5 15.6671Z" fill="#FFC260"/>
<path d="M21.5 38.5L32.5 30L44 38.5L32.5 46L21.5 38.5Z" fill="#FFDBCC" stroke="black"/>
<path fill-rule="evenodd" clip-rule="evenodd" d="M31.1758 13.2174C31.949 12.9275 32.801 12.9275 33.5742 13.2174L45.5326 17.7018C46.184 17.9459 46.7453 18.3831 47.1416 18.9549C47.5378 19.5267 47.7501 20.2058 47.75 20.9015V30.0633C47.7501 32.9186 46.955 35.7176 45.4539 38.1465C43.9528 40.5754 41.8049 42.5384 39.251 43.8153L33.5213 46.6802C33.1654 46.8582 32.7729 46.9509 32.375 46.9509C31.9771 46.9509 31.5846 46.8582 31.2287 46.6802L25.499 43.8153C22.9451 42.5384 20.7972 40.5754 19.2961 38.1465C17.795 35.7176 16.9999 32.9186 17 30.0633V20.9015C16.9999 20.2058 17.2122 19.5267 17.6084 18.9549C18.0047 18.3831 18.566 17.9459 19.2174 17.7018L31.1758 13.2174ZM32.375 16.4171L20.4167 20.9015V30.0633C20.4171 32.2839 21.0358 34.4605 22.2034 36.3493C23.3711 38.2381 25.0417 39.7645 27.0279 40.7574L32.375 43.4344L37.7221 40.7608C39.7089 39.7677 41.3797 38.2408 42.5475 36.3513C43.7152 34.4618 44.3336 32.2844 44.3333 30.0633V20.9015L32.375 16.4171Z" fill="black"/>
<path d="M21.5 38.5L32.5 30V14.5L19 19.5V30.5L21.5 38.5Z" fill="#FF6E30" stroke="black"/>
<path d="M43.5 37.5L32.5 30V14.5L45.5 19.5L46.5 31L43.5 37.5Z" fill="#FFE07B" stroke="black"/>
<path fill-rule="evenodd" clip-rule="evenodd" d="M31.1758 13.2174C31.949 12.9275 32.801 12.9275 33.5742 13.2174L45.5326 17.7018C46.184 17.9459 46.7453 18.3831 47.1416 18.9549C47.5378 19.5267 47.7501 20.2058 47.75 20.9015V30.0633C47.7501 32.9186 46.955 35.7176 45.4539 38.1465C43.9528 40.5754 41.8049 42.5384 39.251 43.8153L33.5213 46.6802C33.1654 46.8582 32.7729 46.9509 32.375 46.9509C31.9771 46.9509 31.5846 46.8582 31.2287 46.6802L25.499 43.8153C22.9451 42.5384 20.7972 40.5754 19.2961 38.1465C17.795 35.7176 16.9999 32.9186 17 30.0633V20.9015C16.9999 20.2058 17.2122 19.5267 17.6084 18.9549C18.0047 18.3831 18.566 17.9459 19.2174 17.7018L31.1758 13.2174ZM32.375 16.4171L20.4167 20.9015V30.0633C20.4171 32.2839 21.0358 34.4605 22.2034 36.3493C23.3711 38.2381 25.0417 39.7645 27.0279 40.7574L32.375 43.4344L37.7221 40.7608C39.7089 39.7677 41.3797 38.2408 42.5475 36.3513C43.7152 34.4618 44.3336 32.2844 44.3333 30.0633V20.9015L32.375 16.4171Z" fill="black"/>
</svg>
