<svg width="64" height="64" viewBox="0 0 64 64" fill="none" xmlns="http://www.w3.org/2000/svg">
<rect width="64" height="64" fill="white"/>
<path d="M34.0842 16.7334C33.9733 16.7332 33.8629 16.7482 33.7559 16.7781C33.0987 16.9609 32.6763 17.6682 32.6227 18.5343L34.6279 19.0133L32.9252 20.1197C33.3087 20.9556 33.9885 21.5008 34.6629 21.5008C34.7737 21.501 34.8841 21.4859 34.9911 21.4561C35.8996 21.2038 36.3593 19.9513 36.0178 18.6621C35.7168 17.5237 34.8954 16.7334 34.0842 16.7334ZM35.6623 15.9798C35.4415 15.8241 35.2013 15.6992 34.9483 15.6086C35.3738 15.2709 35.8864 14.9045 36.185 14.8318C38.3474 14.3089 38.3894 17.5788 40.0025 16.0572C38.6982 18.4968 37.2522 15.0849 35.6623 15.9806V15.9798ZM31.4622 25.2049C31.9628 24.0681 33.2673 23.5638 34.3743 24.0793L32.5589 28.1945C31.4508 27.6806 30.9589 26.3417 31.4606 25.2049H31.4622ZM36.8695 27.9989L38.5589 27.4673L43.2989 29.942L42.742 31.0652L36.8695 27.9989ZM34.5454 22.7773H34.6644C34.885 22.7774 35.1047 22.7477 35.3178 22.6887C35.7364 22.5707 36.1186 22.3445 36.4277 22.0317L37.9437 26.3249L34.2343 27.4928L35.065 25.6096L36.1539 25.3989L35.4002 24.8401L36.0233 23.4423C36.0233 23.4423 34.6605 22.8172 34.5454 22.7773ZM44.8631 34.1929C49.8971 30.5064 41.5963 26.4239 48.5227 25.7414C43.9126 27.8624 52.3674 29.3185 49.32 33.5415C48.7374 34.3486 46.6163 35.5333 45.4589 36.1408C45.3642 35.4628 45.1619 34.8053 44.86 34.1945L44.8631 34.1929ZM34.5345 29.1429L34.3548 28.79L35.1552 28.5386L39.0373 30.5655L33.6976 32.6786L37.4575 35.8789L34.2973 37.9984L34.8029 36.0881L31.2708 32.1764L34.5345 29.1429ZM33.4666 22.5969C33.0856 22.5971 32.7074 22.6623 32.3473 22.79L29.0968 21.0961C30.0104 20.9106 30.9393 20.8168 31.8705 20.8159C32.3123 21.694 32.9867 22.3326 33.7505 22.6128C33.6564 22.6056 33.5615 22.6001 33.4666 22.6001V22.5969ZM19.3104 32.5253H19.6332C20.0509 32.5253 20.5168 32.5085 21.0154 32.475L20.0306 33.9119L18.0861 33.3268C18.0861 33.3268 18.174 32.9635 18.2992 32.4303C18.6343 32.4904 18.9734 32.5232 19.3135 32.5285L19.3104 32.5253ZM30.1197 28.8236C29.0432 26.9963 26.4826 23.4965 22.6527 23.4965C21.3467 23.4965 19.8922 23.9037 18.2969 24.9223L19.1525 26.5053L19.1362 28.256C19.1696 28.5154 18.8717 29.9324 18.5855 31.2017C19.1027 31.2935 20.3744 31.2815 21.9441 31.1219L22.3859 30.4753C23.6428 29.7129 24.6221 29.2171 24.6221 29.2171C24.6221 29.2171 24.5513 29.8374 24.5272 30.7523C26.3208 30.4186 28.1712 29.9005 29.5705 29.1453C29.7586 29.0474 29.9419 28.9401 30.1197 28.8236ZM20.7781 27.3563C20.7781 27.7297 20.3383 27.9167 20.081 27.6526C19.8238 27.3886 20.006 26.9372 20.3699 26.9372C20.4782 26.9372 20.582 26.9814 20.6586 27.06C20.7352 27.1386 20.7782 27.2452 20.7782 27.3563H20.7781ZM31.095 23.5708C30.7915 23.8657 30.543 24.2149 30.3616 24.6014L13 14.7504V14L31.095 23.5708ZM25.1704 35.8741C24.7317 34.699 24.5731 33.2733 24.5326 32.0423C25.8258 31.818 27.1 31.491 28.3439 31.0644C29.1618 30.786 29.9474 30.4164 30.6867 29.9619L29.6149 37.6783L39.6486 39.0466L40.4568 32.0974C40.7881 32.2387 41.114 32.388 41.4322 32.5476C46.0065 34.8371 43.7236 40.2257 43.7236 40.2257L45.6681 44.1541L43.3261 48.4928V49.9944H40.6894L41.9136 48.1719L43.0399 43.9753L39.2387 40.2712C37.0694 40.3717 31.2708 39.3539 28.7756 38.914L22.3198 39.2773L20.5401 41.6155L21.8507 42.6173L19.5523 43.727L18.8235 42.2541L20.3192 38.3201L25.1704 35.8741ZM29.1544 25.4069L30.0341 25.8635C30.0198 26.0597 30.0217 26.2568 30.0395 26.4526C29.7704 26.1078 29.4772 25.7541 29.1544 25.4069ZM26.6895 43.921L27.0784 40.2935L28.7033 40.2025C29.1855 40.2871 29.723 40.3797 30.2931 40.4763L28.6239 44.2874L27.2487 48.6429L27.2978 50H24.8344L25.585 48.5766L26.6895 43.921ZM37.6084 45.4737L34.7469 41.1772C36.4059 41.4127 38.7378 41.582 38.7503 41.582L38.5224 42.1895L40.008 45.5319L36.3523 49.05V49.988H34.1238L35.0067 48.9566L37.6084 45.4737Z" fill="black"/>
</svg>
