<svg width="64" height="64" viewBox="0 0 64 64" fill="none" xmlns="http://www.w3.org/2000/svg">
<rect width="64" height="64" fill="white"/>
<path d="M28.9158 16.7334C29.0267 16.7332 29.1371 16.7482 29.2441 16.7781C29.9013 16.9609 30.3237 17.6682 30.3773 18.5343L28.3721 19.0133L30.0748 20.1197C29.6913 20.9556 29.0115 21.5008 28.3371 21.5008C28.2263 21.501 28.1159 21.4859 28.0089 21.4561C27.1004 21.2038 26.6407 19.9513 26.9822 18.6621C27.2832 17.5237 28.1046 16.7334 28.9158 16.7334ZM27.3377 15.9798C27.5585 15.8241 27.7987 15.6992 28.0517 15.6086C27.6262 15.2709 27.1136 14.9045 26.815 14.8318C24.6526 14.3089 24.6106 17.5788 22.9975 16.0572C24.3018 18.4968 25.7478 15.0849 27.3377 15.9806V15.9798ZM31.5378 25.2049C31.0372 24.0681 29.7327 23.5638 28.6257 24.0793L30.4411 28.1945C31.5492 27.6806 32.0411 26.3417 31.5394 25.2049H31.5378ZM26.1305 27.9989L24.4411 27.4673L19.7011 29.942L20.258 31.0652L26.1305 27.9989ZM28.4546 22.7773H28.3356C28.115 22.7774 27.8953 22.7477 27.6822 22.6887C27.2636 22.5707 26.8814 22.3445 26.5723 22.0317L25.0563 26.3249L28.7657 27.4928L27.935 25.6096L26.8461 25.3989L27.5998 24.8401L26.9767 23.4423C26.9767 23.4423 28.3395 22.8172 28.4546 22.7773ZM18.1369 34.1929C13.1029 30.5064 21.4037 26.4239 14.4773 25.7414C19.0874 27.8624 10.6326 29.3185 13.68 33.5415C14.2626 34.3486 16.3837 35.5333 17.5411 36.1408C17.6358 35.4628 17.8381 34.8053 18.14 34.1945L18.1369 34.1929ZM28.4655 29.1429L28.6452 28.79L27.8448 28.5386L23.9627 30.5655L29.3024 32.6786L25.5425 35.8789L28.7027 37.9984L28.1971 36.0881L31.7292 32.1764L28.4655 29.1429ZM29.5334 22.5969C29.9144 22.5971 30.2926 22.6623 30.6527 22.79L33.9032 21.0961C32.9896 20.9106 32.0607 20.8168 31.1295 20.8159C30.6877 21.694 30.0133 22.3326 29.2495 22.6128C29.3436 22.6056 29.4385 22.6001 29.5334 22.6001V22.5969ZM43.6896 32.5253H43.3668C42.9491 32.5253 42.4832 32.5085 41.9846 32.475L42.9694 33.9119L44.9139 33.3268C44.9139 33.3268 44.826 32.9635 44.7008 32.4303C44.3657 32.4904 44.0266 32.5232 43.6865 32.5285L43.6896 32.5253ZM32.8803 28.8236C33.9568 26.9963 36.5174 23.4965 40.3473 23.4965C41.6533 23.4965 43.1078 23.9037 44.7031 24.9223L43.8475 26.5053L43.8638 28.256C43.8304 28.5154 44.1283 29.9324 44.4145 31.2017C43.8973 31.2935 42.6256 31.2815 41.0559 31.1219L40.6141 30.4753C39.3572 29.7129 38.3779 29.2171 38.3779 29.2171C38.3779 29.2171 38.4487 29.8374 38.4728 30.7523C36.6792 30.4186 34.8288 29.9005 33.4295 29.1453C33.2414 29.0474 33.0581 28.9401 32.8803 28.8236ZM42.2219 27.3563C42.2219 27.7297 42.6617 27.9167 42.919 27.6526C43.1762 27.3886 42.994 26.9372 42.6301 26.9372C42.5218 26.9372 42.418 26.9814 42.3414 27.06C42.2648 27.1386 42.2218 27.2452 42.2218 27.3563H42.2219ZM31.905 23.5708C32.2085 23.8657 32.457 24.2149 32.6384 24.6014L50 14.7504V14L31.905 23.5708ZM37.8296 35.8741C38.2683 34.699 38.4269 33.2733 38.4674 32.0423C37.1742 31.818 35.9 31.491 34.6561 31.0644C33.8382 30.786 33.0526 30.4164 32.3133 29.9619L33.3851 37.6783L23.3514 39.0466L22.5432 32.0974C22.2119 32.2387 21.886 32.388 21.5678 32.5476C16.9935 34.8371 19.2764 40.2257 19.2764 40.2257L17.3319 44.1541L19.6739 48.4928V49.9944H22.3106L21.0864 48.1719L19.9601 43.9753L23.7613 40.2712C25.9306 40.3717 31.7292 39.3539 34.2244 38.914L40.6802 39.2773L42.4599 41.6155L41.1493 42.6173L43.4477 43.727L44.1765 42.2541L42.6808 38.3201L37.8296 35.8741ZM33.8456 25.4069L32.9659 25.8635C32.9802 26.0597 32.9783 26.2568 32.9605 26.4526C33.2296 26.1078 33.5228 25.7541 33.8456 25.4069ZM36.3105 43.921L35.9216 40.2935L34.2967 40.2025C33.8145 40.2871 33.277 40.3797 32.7069 40.4763L34.3761 44.2874L35.7513 48.6429L35.7022 50H38.1656L37.415 48.5766L36.3105 43.921ZM25.3916 45.4737L28.2531 41.1772C26.5941 41.4127 24.2622 41.582 24.2497 41.582L24.4776 42.1895L22.992 45.5319L26.6477 49.05V49.988H28.8762L27.9933 48.9566L25.3916 45.4737Z" fill="black"/>
</svg>
